<?xml version="1.0" encoding="UTF-8" standalone="no"?>
<!-- Created with Inkscape (http://www.inkscape.org/) -->

<svg
   xmlns:dc="http://purl.org/dc/elements/1.1/"
   xmlns:cc="http://creativecommons.org/ns#"
   xmlns:rdf="http://www.w3.org/1999/02/22-rdf-syntax-ns#"
   xmlns:svg="http://www.w3.org/2000/svg"
   xmlns="http://www.w3.org/2000/svg"
   xmlns:sodipodi="http://sodipodi.sourceforge.net/DTD/sodipodi-0.dtd"
   xmlns:inkscape="http://www.inkscape.org/namespaces/inkscape"
   width="28"
   height="193"
   id="svg2864"
   version="1.1"
   inkscape:version="0.47 r22583"
   sodipodi:docname="Documento nuevo 2">
  <defs
     id="defs2866">
    <inkscape:perspective
       sodipodi:type="inkscape:persp3d"
       inkscape:vp_x="0 : 526.18109 : 1"
       inkscape:vp_y="0 : 1000 : 0"
       inkscape:vp_z="744.09448 : 526.18109 : 1"
       inkscape:persp3d-origin="372.04724 : 350.78739 : 1"
       id="perspective2872" />
    <inkscape:perspective
       id="perspective2854"
       inkscape:persp3d-origin="0.5 : 0.33333333 : 1"
       inkscape:vp_z="1 : 0.5 : 1"
       inkscape:vp_y="0 : 1000 : 0"
       inkscape:vp_x="0 : 0.5 : 1"
       sodipodi:type="inkscape:persp3d" />
  </defs>
  <sodipodi:namedview
     id="base"
     pagecolor="#ffffff"
     bordercolor="#666666"
     borderopacity="1.0"
     inkscape:pageopacity="0.0"
     inkscape:pageshadow="2"
     inkscape:zoom="2.8"
     inkscape:cx="13.087404"
     inkscape:cy="91.559174"
     inkscape:document-units="px"
     inkscape:current-layer="layer1"
     showgrid="false"
     inkscape:window-width="1280"
     inkscape:window-height="992"
     inkscape:window-x="1920"
     inkscape:window-y="176"
     inkscape:window-maximized="1" />
  <metadata
     id="metadata2869">
    <rdf:RDF>
      <cc:Work
         rdf:about="">
        <dc:format>image/svg+xml</dc:format>
        <dc:type
           rdf:resource="http://purl.org/dc/dcmitype/StillImage" />
        <dc:title></dc:title>
      </cc:Work>
    </rdf:RDF>
  </metadata>
  <g
     inkscape:label="Capa 1"
     inkscape:groupmode="layer"
     id="layer1"
     transform="translate(-331.71429,421.28068)">
    <path
       sodipodi:type="arc"
       style="fill:#ffebcd;fill-opacity:0.66666667;stroke:#fcaf3e;stroke-width:2.86546564;stroke-miterlimit:4;stroke-opacity:1;stroke-dasharray:17.19279326, 5.73093108;stroke-dashoffset:0"
       id="path3157-4-0-4"
       sodipodi:cx="12.366072"
       sodipodi:cy="11.517857"
       sodipodi:rx="12.1875"
       sodipodi:ry="11.696428"
       d="m 24.553572,11.517857 c 0,6.459759 -5.45653,11.696428 -12.1875,11.696428 -6.7309707,0 -12.1875003,-5.236669 -12.1875003,-11.696428 0,-6.4597594 5.4565296,-11.6964287 12.1875003,-11.6964287 6.73097,0 12.1875,5.2366693 12.1875,11.6964287 z"
       transform="matrix(1.025641,0,0,1.0687024,333.03114,-254.58984)"
       inkscape:export-filename="/home/aarranz/Fast/GVS/media/images/facts/28x28/recommendation1.png"
       inkscape:export-xdpi="90"
       inkscape:export-ydpi="90" />
    <path
       sodipodi:type="arc"
       style="fill:#cddfff;fill-opacity:0.66666667;stroke:#5496ff;stroke-width:2.8654654;stroke-miterlimit:4;stroke-opacity:1;stroke-dasharray:17.19279268, 5.73093089;stroke-dashoffset:0"
       id="path3157-7"
       sodipodi:cx="12.366072"
       sodipodi:cy="11.517857"
       sodipodi:rx="12.1875"
       sodipodi:ry="11.696428"
       d="m 24.553572,11.517857 c 0,6.459759 -5.45653,11.696428 -12.1875,11.696428 -6.7309707,0 -12.1875003,-5.236669 -12.1875003,-11.696428 0,-6.4597594 5.4565296,-11.6964287 12.1875003,-11.6964287 6.73097,0 12.1875,5.2366693 12.1875,11.6964287 z"
       transform="matrix(1.025641,0,0,1.0687024,333.03114,-320.58984)"
       inkscape:export-filename="/home/aarranz/Fast/GVS/media/images/facts/28x28/recommendation3.png"
       inkscape:export-xdpi="90"
       inkscape:export-ydpi="90" />
    <path
       sodipodi:type="arc"
       style="fill:#e7e3e9;fill-opacity:0.66666667;stroke:#7a5e85;stroke-width:2.8654654;stroke-miterlimit:4;stroke-opacity:1;stroke-dasharray:17.19279284, 5.73093094;stroke-dashoffset:0"
       id="path3157-4-02"
       sodipodi:cx="12.366072"
       sodipodi:cy="11.517857"
       sodipodi:rx="12.1875"
       sodipodi:ry="11.696428"
       d="m 24.553572,11.517857 c 0,6.459759 -5.45653,11.696428 -12.1875,11.696428 -6.7309707,0 -12.1875003,-5.236669 -12.1875003,-11.696428 0,-6.4597594 5.4565296,-11.6964287 12.1875003,-11.6964287 6.73097,0 12.1875,5.2366693 12.1875,11.6964287 z"
       transform="matrix(1.025641,0,0,1.0687024,333.03114,-287.58984)"
       inkscape:export-filename="/home/aarranz/Fast/GVS/media/images/facts/28x28/recommendation2.png"
       inkscape:export-xdpi="90"
       inkscape:export-ydpi="90" />
    <path
       sodipodi:type="arc"
       style="fill:#dfede2;fill-opacity:0.66666667;stroke:#5a9e68;stroke-width:2.8654654;stroke-miterlimit:4;stroke-opacity:1;stroke-dasharray:17.19279268, 5.73093089;stroke-dashoffset:0"
       id="path3157-6-4"
       sodipodi:cx="12.366072"
       sodipodi:cy="11.517857"
       sodipodi:rx="12.1875"
       sodipodi:ry="11.696428"
       d="m 24.553572,11.517857 c 0,6.459759 -5.45653,11.696428 -12.1875,11.696428 -6.7309707,0 -12.1875003,-5.236669 -12.1875003,-11.696428 0,-6.4597594 5.4565296,-11.6964287 12.1875003,-11.6964287 6.73097,0 12.1875,5.2366693 12.1875,11.6964287 z"
       transform="matrix(1.025641,0,0,1.0687024,333.03114,-353.58984)"
       inkscape:export-filename="/home/aarranz/Fast/GVS/media/images/facts/28x28/recommendation4.png"
       inkscape:export-xdpi="90"
       inkscape:export-ydpi="90" />
    <path
       sodipodi:type="arc"
       style="fill:#ffe8cd;fill-opacity:0.66666667;stroke:#bf6900;stroke-width:2.8654654;stroke-miterlimit:4;stroke-opacity:1;stroke-dasharray:17.19279268, 5.73093089;stroke-dashoffset:0"
       id="path3157-6-0-4"
       sodipodi:cx="12.366072"
       sodipodi:cy="11.517857"
       sodipodi:rx="12.1875"
       sodipodi:ry="11.696428"
       d="m 24.553572,11.517857 c 0,6.459759 -5.45653,11.696428 -12.1875,11.696428 -6.7309707,0 -12.1875003,-5.236669 -12.1875003,-11.696428 0,-6.4597594 5.4565296,-11.6964287 12.1875003,-11.6964287 6.73097,0 12.1875,5.2366693 12.1875,11.6964287 z"
       transform="matrix(1.025641,0,0,1.0687024,333.03114,-386.58984)"
       inkscape:export-filename="/home/aarranz/Fast/GVS/media/images/facts/28x28/recommendation5.png"
       inkscape:export-xdpi="90"
       inkscape:export-ydpi="90" />
    <path
       sodipodi:type="arc"
       style="fill:#bfcfc0;fill-opacity:0.62745098;stroke:#40553b;stroke-width:2.86546564;stroke-miterlimit:4;stroke-opacity:1;stroke-dasharray:17.19279342, 5.73093114;stroke-dashoffset:0"
       id="path3157-6-0-8-5"
       sodipodi:cx="12.366072"
       sodipodi:cy="11.517857"
       sodipodi:rx="12.1875"
       sodipodi:ry="11.696428"
       d="m 24.553572,11.517857 c 0,6.459759 -5.45653,11.696428 -12.1875,11.696428 -6.7309707,0 -12.1875003,-5.236669 -12.1875003,-11.696428 0,-6.4597594 5.4565296,-11.6964287 12.1875003,-11.6964287 6.73097,0 12.1875,5.2366693 12.1875,11.6964287 z"
       transform="matrix(1.025641,0,0,1.0687023,333.03114,-419.58984)"
       inkscape:export-filename="/home/aarranz/Fast/GVS/media/images/facts/28x28/recommendation6.png"
       inkscape:export-xdpi="90"
       inkscape:export-ydpi="90" />
  </g>
</svg>
